<svg width="137" height="137" viewBox="0 0 137 137" fill="none" xmlns="http://www.w3.org/2000/svg">
<path d="M18.3334 35.0667L39.7616 55.8292L44.8648 76.3793L60.417 89.1666L60.8168 119.5L48.4543 91.5485L29.5518 76.672L18.3334 35.0667Z" fill="#129F07"/>
<path d="M118.001 35.0667L96.5731 55.8292L91.4682 76.3793L75.916 89.1666L75.5179 119.5L87.8787 91.5485L106.781 76.672L118.001 35.0667Z" fill="#129F07"/>
<path d="M42.7657 33.5977L45.4971 56.7471L32.7951 45.3414L42.7657 33.5977Z" fill="#129F07"/>
<path d="M93.6223 33.5977L90.8909 56.7471L103.591 45.3414L93.6223 33.5977Z" fill="#129F07"/>
<path d="M68.2268 17.5001L77.898 26.7314L74.3018 45.5202L68.2268 52.393L62.0999 45.5202L58.5639 26.7314L68.2268 17.5001Z" fill="#129F07"/>
<path d="M54.9073 19.4604L44.7928 31.1839L47.929 58.7791L68.2064 72.4413L88.5173 58.7791L91.6284 31.1839L81.4721 19.4604L74.9589 48.1729L68.2298 55.5326L61.2415 48.1729L54.9073 19.4604Z" fill="#129F07"/>
<path d="M94.9188 57.2495L89.4743 76.4096L68.2268 92.8199L46.9257 76.4966L41.4628 57.2495L68.19 74.6349L94.9188 57.2495Z" fill="#129F07"/>
<path d="M33.3671 82.9752L37.7277 99.0058L56.0448 113.973L47.1112 93.5296L33.3671 82.9752Z" fill="#129F07"/>
<path d="M102.967 82.9752L98.6067 99.0058L80.2896 113.973L89.2215 93.5296L102.967 82.9752Z" fill="#129F07"/>
</svg>
