<svg width="116" height="36" viewBox="0 0 116 36" fill="none" xmlns="http://www.w3.org/2000/svg">
<g id="Group 10">
<g id="Group 9">
<path id="Vector" d="M3.05176e-05 6.19971L7.56298 13.5277L9.36413 20.7807L14.8532 25.2939L14.9943 35.9999L10.631 26.1346L3.95949 20.884L3.05176e-05 6.19971Z" fill="#129F07"/>
<path id="Vector_2" d="M35.1771 6.19971L27.6142 13.5277L25.8124 20.7807L20.3234 25.2939L20.1829 35.9999L24.5455 26.1346L31.2171 20.884L35.1771 6.19971Z" fill="#129F07"/>
<path id="Vector_3" d="M8.62327 5.6814L9.5873 13.8518L5.1042 9.82623L8.62327 5.6814Z" fill="#129F07"/>
<path id="Vector_4" d="M26.5728 5.6814L25.6088 13.8518L30.0913 9.82623L26.5728 5.6814Z" fill="#129F07"/>
<path id="Vector_5" d="M17.6095 0L21.0229 3.25813L19.7536 9.88951L17.6095 12.3152L15.4471 9.88951L14.1991 3.25813L17.6095 0Z" fill="#129F07"/>
<path id="Vector_6" d="M12.9085 0.691895L9.33871 4.82964L10.4456 14.5692L17.6024 19.3912L24.771 14.5692L25.869 4.82964L22.2845 0.691895L19.9856 10.8258L17.6107 13.4233L15.1442 10.8258L12.9085 0.691895Z" fill="#129F07"/>
<path id="Vector_7" d="M27.0303 14.0288L25.1087 20.7912L17.6095 26.5831L10.0914 20.8219L8.16335 14.0288L17.5965 20.1649L27.0303 14.0288Z" fill="#129F07"/>
<path id="Vector_8" d="M5.30611 23.1094L6.84514 28.7673L13.31 34.0497L10.157 26.8345L5.30611 23.1094Z" fill="#129F07"/>
<path id="Vector_9" d="M29.8711 23.1094L28.332 28.7673L21.8671 34.0497L25.0196 26.8345L29.8711 23.1094Z" fill="#129F07"/>
</g>
<g id="Diet&#38;Cheat">
<path d="M45.6969 23.3212H42.4841V13.3966H45.7987C46.7711 13.3966 47.6063 13.5953 48.3041 13.9927C49.0019 14.3868 49.5366 14.9538 49.9081 15.6936C50.2828 16.4302 50.4702 17.3138 50.4702 18.3444C50.4702 19.3782 50.2812 20.2666 49.9032 21.0097C49.5285 21.7527 48.9857 22.3245 48.275 22.7251C47.5643 23.1225 46.7049 23.3212 45.6969 23.3212ZM43.9815 22.0128H45.6146C46.3705 22.0128 46.9989 21.8706 47.4996 21.5863C48.0004 21.2988 48.3751 20.8837 48.6239 20.3409C48.8727 19.7949 48.997 19.1294 48.997 18.3444C48.997 17.5658 48.8727 16.9051 48.6239 16.3624C48.3784 15.8196 48.0117 15.4077 47.5239 15.1267C47.036 14.8456 46.4303 14.7051 45.7066 14.7051H43.9815V22.0128Z" fill="#2E2E2E"/>
<path d="M52.216 23.3212V15.8778H53.6649V23.3212H52.216ZM52.9477 14.7293C52.6957 14.7293 52.4793 14.6453 52.2984 14.4773C52.1207 14.3061 52.0318 14.1025 52.0318 13.8667C52.0318 13.6276 52.1207 13.4241 52.2984 13.2561C52.4793 13.0849 52.6957 12.9993 52.9477 12.9993C53.1997 12.9993 53.4146 13.0849 53.5922 13.2561C53.7732 13.4241 53.8636 13.6276 53.8636 13.8667C53.8636 14.1025 53.7732 14.3061 53.5922 14.4773C53.4146 14.6453 53.1997 14.7293 52.9477 14.7293Z" fill="#2E2E2E"/>
<path d="M58.8223 23.4714C58.0889 23.4714 57.4573 23.3147 56.9275 23.0014C56.4009 22.6848 55.9938 22.2405 55.7063 21.6687C55.422 21.0937 55.2799 20.4201 55.2799 19.6479C55.2799 18.8855 55.422 18.2135 55.7063 17.632C55.9938 17.0505 56.3944 16.5966 56.9081 16.2703C57.425 15.944 58.0291 15.7809 58.7205 15.7809C59.1405 15.7809 59.5475 15.8503 59.9417 15.9892C60.3358 16.1282 60.6896 16.3462 61.003 16.6434C61.3163 16.9407 61.5635 17.3267 61.7444 17.8016C61.9253 18.2733 62.0158 18.8467 62.0158 19.522V20.0356H56.0988V18.9501H60.5959C60.5959 18.5689 60.5184 18.2313 60.3633 17.9373C60.2082 17.6401 59.9901 17.4059 59.7091 17.2347C59.4312 17.0634 59.1049 16.9778 58.7302 16.9778C58.3231 16.9778 57.9678 17.078 57.6641 17.2783C57.3636 17.4753 57.131 17.7338 56.9663 18.0536C56.8047 18.3702 56.724 18.7143 56.724 19.0858V19.9339C56.724 20.4314 56.8112 20.8546 56.9856 21.2035C57.1633 21.5524 57.4105 21.8189 57.7271 22.0031C58.0437 22.184 58.4136 22.2745 58.8368 22.2745C59.1114 22.2745 59.3618 22.2357 59.5879 22.1582C59.8141 22.0774 60.0095 21.9579 60.1743 21.7996C60.3391 21.6413 60.4651 21.4458 60.5523 21.2132L61.9237 21.4603C61.8138 21.8642 61.6168 22.2179 61.3325 22.5216C61.0514 22.8221 60.6977 23.0563 60.2712 23.2243C59.848 23.389 59.365 23.4714 58.8223 23.4714Z" fill="#2E2E2E"/>
<path d="M67.098 15.8778V17.0408H63.0322V15.8778H67.098ZM64.1226 14.0945H65.5715V21.1357C65.5715 21.4167 65.6135 21.6283 65.6975 21.7705C65.7815 21.9094 65.8897 22.0047 66.0222 22.0564C66.1579 22.1049 66.3049 22.1291 66.4632 22.1291C66.5795 22.1291 66.6812 22.121 66.7685 22.1049C66.8557 22.0887 66.9235 22.0758 66.972 22.0661L67.2337 23.263C67.1497 23.2954 67.0301 23.3277 66.8751 23.36C66.72 23.3955 66.5262 23.4149 66.2936 23.4181C65.9123 23.4246 65.557 23.3567 65.2274 23.2146C64.8979 23.0724 64.6314 22.8528 64.4278 22.5555C64.2243 22.2583 64.1226 21.8852 64.1226 21.4361V14.0945Z" fill="#2E2E2E"/>
<path d="M71.589 23.4617C70.9235 23.4617 70.35 23.3406 69.8687 23.0983C69.3905 22.856 69.0222 22.5265 68.7638 22.1097C68.5053 21.6897 68.3761 21.2148 68.3761 20.685C68.3761 20.2812 68.4601 19.9226 68.6281 19.6092C68.7961 19.2926 69.0303 19.0002 69.3308 18.7321C69.6312 18.4639 69.9785 18.1942 70.3727 17.9228L71.9718 16.7937C72.2432 16.616 72.4548 16.4286 72.6066 16.2315C72.7585 16.0312 72.8344 15.7841 72.8344 15.4901C72.8344 15.2575 72.7343 15.0346 72.534 14.8214C72.3337 14.6081 72.0655 14.5015 71.7295 14.5015C71.4969 14.5015 71.2918 14.5581 71.1141 14.6711C70.9396 14.7842 70.8023 14.9296 70.7022 15.1073C70.6053 15.2817 70.5568 15.4659 70.5568 15.6597C70.5568 15.8859 70.6182 16.1136 70.7409 16.343C70.8669 16.5724 71.0285 16.8098 71.2255 17.0554C71.4226 17.2976 71.6294 17.5496 71.8458 17.8113L76.4544 23.3212H74.8164L71.0026 18.8387C70.6828 18.4607 70.3856 18.1053 70.111 17.7726C69.8364 17.4366 69.6134 17.0973 69.4422 16.7549C69.2742 16.4092 69.1902 16.0361 69.1902 15.6355C69.1902 15.18 69.2936 14.7761 69.5004 14.424C69.7104 14.0686 70.0027 13.7908 70.3775 13.5905C70.7523 13.3902 71.1916 13.29 71.6956 13.29C72.206 13.29 72.6438 13.3902 73.0089 13.5905C73.3772 13.7875 73.6598 14.0508 73.8569 14.3804C74.0572 14.7067 74.1574 15.0637 74.1574 15.4513C74.1574 15.923 74.0394 16.3398 73.8036 16.7016C73.571 17.0602 73.2495 17.3897 72.8393 17.6902L70.8476 19.1585C70.4599 19.4428 70.1901 19.7239 70.0383 20.0017C69.8897 20.2763 69.8154 20.4911 69.8154 20.6462C69.8154 20.9305 69.8881 21.1938 70.0334 21.4361C70.182 21.6784 70.3888 21.8723 70.6537 22.0176C70.9219 22.163 71.2352 22.2357 71.5938 22.2357C71.9621 22.2357 72.3207 22.1565 72.6696 21.9982C73.0218 21.8367 73.34 21.6057 73.6243 21.3053C73.9118 21.0048 74.1396 20.6446 74.3076 20.2246C74.4756 19.8046 74.5596 19.3346 74.5596 18.8144H75.868C75.868 19.4541 75.7953 19.9952 75.6499 20.4378C75.5045 20.8772 75.3285 21.2358 75.1217 21.5136C74.9182 21.7883 74.726 22.0031 74.545 22.1582C74.4869 22.2099 74.432 22.2615 74.3803 22.3132C74.3286 22.3649 74.2737 22.4166 74.2155 22.4683C73.8795 22.8075 73.4725 23.0579 72.9943 23.2194C72.5194 23.381 72.051 23.4617 71.589 23.4617Z" fill="#2E2E2E"/>
<path d="M85.9488 16.6241H84.4369C84.3787 16.301 84.2705 16.0167 84.1122 15.7712C83.9539 15.5256 83.7601 15.3173 83.5307 15.146C83.3013 14.9748 83.0445 14.8456 82.7602 14.7584C82.4791 14.6711 82.1803 14.6275 81.8637 14.6275C81.2918 14.6275 80.7798 14.7713 80.3275 15.0588C79.8784 15.3463 79.5231 15.7679 79.2614 16.3236C79.0029 16.8793 78.8737 17.5577 78.8737 18.3589C78.8737 19.1666 79.0029 19.8482 79.2614 20.4039C79.5231 20.9596 79.8801 21.3796 80.3323 21.6639C80.7846 21.9482 81.2935 22.0903 81.8588 22.0903C82.1722 22.0903 82.4694 22.0483 82.7505 21.9643C83.0348 21.8771 83.2916 21.7495 83.521 21.5815C83.7504 21.4135 83.9442 21.2084 84.1025 20.9661C84.264 20.7205 84.3755 20.4395 84.4369 20.1229L85.9488 20.1277C85.8681 20.6155 85.7114 21.0646 85.4788 21.4749C85.2494 21.8819 84.9538 22.2341 84.592 22.5313C84.2334 22.8253 83.8231 23.0531 83.3611 23.2146C82.8991 23.3761 82.3951 23.4569 81.8491 23.4569C80.9898 23.4569 80.2241 23.2534 79.5521 22.8463C78.8802 22.436 78.3503 21.8496 77.9627 21.0872C77.5782 20.3248 77.386 19.4153 77.386 18.3589C77.386 17.2993 77.5798 16.3898 77.9675 15.6306C78.3552 14.8682 78.885 14.2835 79.557 13.8764C80.229 13.4661 80.993 13.261 81.8491 13.261C82.3757 13.261 82.8668 13.3369 83.3223 13.4887C83.7811 13.6373 84.193 13.857 84.558 14.1478C84.9231 14.4353 85.2252 14.7874 85.4642 15.2042C85.7033 15.6177 85.8648 16.091 85.9488 16.6241Z" fill="#2E2E2E"/>
<path d="M89.0733 18.9017V23.3212H87.6243V13.3966H89.0539V17.0893H89.146C89.3204 16.6887 89.5869 16.3705 89.9456 16.1346C90.3042 15.8988 90.7726 15.7809 91.3509 15.7809C91.8613 15.7809 92.3072 15.8859 92.6884 16.0958C93.0728 16.3058 93.37 16.6192 93.58 17.036C93.7933 17.4495 93.8999 17.9664 93.8999 18.5867V23.3212H92.4509V18.7611C92.4509 18.2152 92.3104 17.7919 92.0293 17.4915C91.7483 17.1878 91.3573 17.036 90.8566 17.036C90.5141 17.036 90.2072 17.1087 89.9359 17.254C89.6677 17.3994 89.4561 17.6126 89.301 17.8937C89.1492 18.1715 89.0733 18.5075 89.0733 18.9017Z" fill="#2E2E2E"/>
<path d="M99.0415 23.4714C98.3081 23.4714 97.6765 23.3147 97.1467 23.0014C96.6201 22.6848 96.213 22.2405 95.9255 21.6687C95.6412 21.0937 95.499 20.4201 95.499 19.6479C95.499 18.8855 95.6412 18.2135 95.9255 17.632C96.213 17.0505 96.6136 16.5966 97.1273 16.2703C97.6442 15.944 98.2483 15.7809 98.9397 15.7809C99.3597 15.7809 99.7667 15.8503 100.161 15.9892C100.555 16.1282 100.909 16.3462 101.222 16.6434C101.536 16.9407 101.783 17.3267 101.964 17.8016C102.144 18.2733 102.235 18.8467 102.235 19.522V20.0356H96.318V18.9501H100.815C100.815 18.5689 100.738 18.2313 100.582 17.9373C100.427 17.6401 100.209 17.4059 99.9283 17.2347C99.6504 17.0634 99.3241 16.9778 98.9494 16.9778C98.5423 16.9778 98.1869 17.078 97.8833 17.2783C97.5828 17.4753 97.3502 17.7338 97.1854 18.0536C97.0239 18.3702 96.9431 18.7143 96.9431 19.0858V19.9339C96.9431 20.4314 97.0304 20.8546 97.2048 21.2035C97.3825 21.5524 97.6297 21.8189 97.9463 22.0031C98.2629 22.184 98.6328 22.2745 99.056 22.2745C99.3306 22.2745 99.581 22.2357 99.8071 22.1582C100.033 22.0774 100.229 21.9579 100.393 21.7996C100.558 21.6413 100.684 21.4458 100.771 21.2132L102.143 21.4603C102.033 21.8642 101.836 22.2179 101.552 22.5216C101.271 22.8221 100.917 23.0563 100.49 23.2243C100.067 23.389 99.5842 23.4714 99.0415 23.4714Z" fill="#2E2E2E"/>
<path d="M106.009 23.486C105.537 23.486 105.111 23.3987 104.729 23.2243C104.348 23.0466 104.046 22.7898 103.823 22.4538C103.604 22.1178 103.494 21.7059 103.494 21.218C103.494 20.7981 103.574 20.4524 103.736 20.181C103.898 19.9096 104.116 19.6948 104.39 19.5365C104.665 19.3782 104.972 19.2587 105.311 19.1779C105.65 19.0971 105.996 19.0357 106.348 18.9937C106.794 18.9421 107.156 18.9001 107.433 18.8677C107.711 18.8322 107.913 18.7757 108.039 18.6981C108.165 18.6206 108.228 18.4946 108.228 18.3202V18.2862C108.228 17.863 108.109 17.5351 107.87 17.3025C107.634 17.0699 107.282 16.9536 106.813 16.9536C106.325 16.9536 105.941 17.0618 105.66 17.2783C105.382 17.4915 105.19 17.7289 105.083 17.9906L103.721 17.6805C103.883 17.2282 104.119 16.8631 104.429 16.5853C104.742 16.3042 105.103 16.1007 105.51 15.9747C105.917 15.8455 106.345 15.7809 106.794 15.7809C107.091 15.7809 107.406 15.8164 107.739 15.8875C108.075 15.9553 108.388 16.0813 108.679 16.2655C108.973 16.4496 109.214 16.7129 109.401 17.0554C109.588 17.3946 109.682 17.8356 109.682 18.3783V23.3212H108.267V22.3035H108.209C108.115 22.4909 107.975 22.6751 107.787 22.856C107.6 23.0369 107.359 23.1871 107.065 23.3067C106.771 23.4262 106.419 23.486 106.009 23.486ZM106.324 22.3229C106.724 22.3229 107.067 22.2438 107.351 22.0855C107.639 21.9272 107.857 21.7204 108.005 21.4652C108.157 21.2067 108.233 20.9305 108.233 20.6365V19.677C108.181 19.7287 108.081 19.7772 107.933 19.8224C107.787 19.8644 107.621 19.9016 107.433 19.9339C107.246 19.9629 107.064 19.9904 106.886 20.0162C106.708 20.0389 106.56 20.0582 106.44 20.0744C106.159 20.1099 105.902 20.1697 105.67 20.2537C105.44 20.3377 105.256 20.4588 105.117 20.6171C104.981 20.7722 104.914 20.979 104.914 21.2374C104.914 21.596 105.046 21.8674 105.311 22.0516C105.576 22.2325 105.913 22.3229 106.324 22.3229Z" fill="#2E2E2E"/>
<path d="M115.086 15.8778V17.0408H111.021V15.8778H115.086ZM112.111 14.0945H113.56V21.1357C113.56 21.4167 113.602 21.6283 113.686 21.7705C113.77 21.9094 113.878 22.0047 114.011 22.0564C114.146 22.1049 114.293 22.1291 114.452 22.1291C114.568 22.1291 114.67 22.121 114.757 22.1049C114.844 22.0887 114.912 22.0758 114.96 22.0661L115.222 23.263C115.138 23.2954 115.019 23.3277 114.864 23.36C114.708 23.3955 114.515 23.4149 114.282 23.4181C113.901 23.4246 113.545 23.3567 113.216 23.2146C112.886 23.0724 112.62 22.8528 112.416 22.5555C112.213 22.2583 112.111 21.8852 112.111 21.4361V14.0945Z" fill="#2E2E2E"/>
</g>
</g>
</svg>
